<?xml version="1.0" encoding="utf-8"?>
<!-- Generator: Adobe Illustrator 22.0.0, SVG Export Plug-In . SVG Version: 6.00 Build 0)  -->
<svg version="1.1" id="Layer_1" xmlns="http://www.w3.org/2000/svg" xmlns:xlink="http://www.w3.org/1999/xlink" x="0px" y="0px"
	 viewBox="0 0 640 480" style="enable-background:new 0 0 640 480;" xml:space="preserve">
<style type="text/css">
	.st0{fill:url(#SVGID_1_);stroke:#000000;stroke-miterlimit:10;}
	.st1{fill:url(#SVGID_2_);stroke:#000000;stroke-miterlimit:10;}
</style>
<linearGradient id="SVGID_1_" gradientUnits="userSpaceOnUse" x1="16.3921" y1="110.6278" x2="16.3921" y2="110.6278">
	<stop  offset="0" style="stop-color:#FBB03B"/>
	<stop  offset="1" style="stop-color:#FF0000"/>
</linearGradient>
<path class="st0" d="M16.4,110.6"/>
<linearGradient id="SVGID_2_" gradientUnits="userSpaceOnUse" x1="363.5805" y1="380.851" x2="358.0763" y2="97.8447">
	<stop  offset="0" style="stop-color:#FBB03B"/>
	<stop  offset="1" style="stop-color:#FF0000"/>
</linearGradient>
<path class="st1" d="M179.3,257.4c-3.1,39.1,66.5,160.4,183.9,158.9c107.4-1.3,171-99.6,178.3-153.3c3.4-25.3-0.8-46.8-0.8-46.8
	c-6.6-33.3-21.8-40.9-33.1-71.8c-15.9-43.8-3.9-79.7-9.7-80.7c-7.9-1.4-32,94.6-41.9,92.8c-2.2-0.4-2.4-5.2-5.6-29
	c-5.5-40-7.7-47.3-8.9-50.8c-6.5-19.6-20.1-41.4-27.4-39.5c-4.5,1.1-6,13.4-8.9,37.9c-2.3,19.4-1.5,22.9-4,34.7
	c-0.9,4.3-7.5,34.6-16.1,34.7c-1,0-4.8-0.4-10.5-14.5c-9.1-22.4-6.1-37.5-8.9-62.1c-0.5-4.7-4.7-41.6-12.1-41.9
	c-7.3-0.4-15.8,34.4-19.4,53.2c-6.1,32.7-3.2,49.9-9.7,51.6c-6.8,1.8-18.4-14.6-24.2-29.8c-10.9-28.4-1.5-52.1-5.6-53.2
	c-4.6-1.3-21.5,27.1-26.6,62.9c-3.3,22.6-0.2,36.9-4,37.9c-9.2,2.4-31.4-78.2-46-75.8c-10.5,1.7-3.6,44.1-21.8,103.3
	c-2.2,7.2-7.6,23.9-12.1,47.6C180.8,241.7,179.5,255.7,179.3,257.4z"/>
</svg>
