<?xml version="1.0" encoding="utf-8"?>
<!-- Generator: Adobe Illustrator 22.0.0, SVG Export Plug-In . SVG Version: 6.00 Build 0)  -->
<svg version="1.1" id="Layer_1" xmlns="http://www.w3.org/2000/svg" xmlns:xlink="http://www.w3.org/1999/xlink" x="0px" y="0px"
	 viewBox="0 0 64 64" style="enable-background:new 0 0 64 64;" xml:space="preserve">
<style type="text/css">
	.st0{fill:none;stroke:#000000;stroke-miterlimit:10;}
</style>
<circle class="st0" cx="32" cy="40.2" r="13.8"/>
<circle class="st0" cx="32" cy="40.2" r="12"/>
<polygon class="st0" points="36.9,47.9 32,45.3 27,47.9 28,42.3 24,38.4 29.5,37.6 32,32.6 34.5,37.6 40,38.4 36,42.3 "/>
<path class="st0" d="M41.9,30.1c-0.4-0.5-1.1-1.3-2.1-1.9c-1.1-0.7-2.2-1-2.8-1.1c3.6-6,7.2-12.1,10.8-18.1c0.5,0,1.7,0,2.9,0.8
	c1.3,0.7,1.9,1.8,2.1,2.2C49.1,18,45.5,24,41.9,30.1z"/>
<path class="st0" d="M36,6.8"/>
<path class="st0" d="M22.2,30.1c0.4-0.5,1.1-1.3,2.1-1.9c1.1-0.7,2.2-1,2.8-1.1C23.5,21.1,19.9,15,16.3,9c-0.5,0-1.7,0-2.9,0.8
	c-1.3,0.7-1.9,1.8-2.1,2.2C14.9,18,18.5,24,22.2,30.1z"/>
</svg>
