<?xml version="1.0" encoding="utf-8"?>
<!-- Generator: Adobe Illustrator 22.0.0, SVG Export Plug-In . SVG Version: 6.00 Build 0)  -->
<svg version="1.1" id="Layer_1" xmlns="http://www.w3.org/2000/svg" xmlns:xlink="http://www.w3.org/1999/xlink" x="0px" y="0px"
	 viewBox="0 0 503.5 432.5" style="enable-background:new 0 0 503.5 432.5;" xml:space="preserve">
<style type="text/css">
	.st0{fill:#FFFFFF;}
	.st1{fill:none;stroke:#000000;stroke-width:5;stroke-miterlimit:10;}
	.st2{fill:none;stroke:#000000;stroke-width:6;stroke-linecap:round;stroke-miterlimit:10;}
	.st3{stroke:#000000;stroke-miterlimit:10;}
	.st4{fill:#050000;stroke:#000000;stroke-width:2;stroke-miterlimit:10;}
</style>
<g>
	<g>
		<rect x="74.4" y="73.4" class="st0" width="355" height="282"/>
		<path d="M425.9,76.9v275h-348v-275H425.9 M432.9,69.9h-362v289h362V69.9L432.9,69.9z"/>
	</g>
	<g>
		<line class="st1" x1="70.9" y1="142.9" x2="432.9" y2="142.9"/>
	</g>
	<g>
		<path class="st0" d="M136.9,88.3c-0.8,0-1.5-0.7-1.5-1.5V61c0-0.8,0.7-1.5,1.5-1.5h18c0.8,0,1.5,0.7,1.5,1.5v25.7
			c0,0.8-0.7,1.5-1.5,1.5H136.9z"/>
		<path d="M154.9,61v25.7h-18V61H154.9 M154.9,58h-18c-1.7,0-3,1.3-3,3v25.7c0,1.7,1.3,3,3,3h18c1.7,0,3-1.3,3-3V61
			C157.9,59.4,156.6,58,154.9,58L154.9,58z"/>
	</g>
	<g>
		<path class="st0" d="M207.9,88.3c-0.8,0-1.5-0.7-1.5-1.5V61c0-0.8,0.7-1.5,1.5-1.5h18c0.8,0,1.5,0.7,1.5,1.5v25.7
			c0,0.8-0.7,1.5-1.5,1.5H207.9z"/>
		<path d="M225.9,61v25.7h-18V61H225.9 M225.9,58h-18c-1.7,0-3,1.3-3,3v25.7c0,1.7,1.3,3,3,3h18c1.7,0,3-1.3,3-3V61
			C228.9,59.4,227.6,58,225.9,58L225.9,58z"/>
	</g>
	<g>
		<path class="st0" d="M279.9,88.3c-0.8,0-1.5-0.7-1.5-1.5V61c0-0.8,0.7-1.5,1.5-1.5h18c0.8,0,1.5,0.7,1.5,1.5v25.7
			c0,0.8-0.7,1.5-1.5,1.5H279.9z"/>
		<path d="M297.9,61v25.7h-18V61H297.9 M297.9,58h-18c-1.7,0-3,1.3-3,3v25.7c0,1.7,1.3,3,3,3h18c1.7,0,3-1.3,3-3V61
			C300.9,59.4,299.6,58,297.9,58L297.9,58z"/>
	</g>
	<g>
		<path class="st0" d="M352.9,88.3c-0.8,0-1.5-0.7-1.5-1.5V61c0-0.8,0.7-1.5,1.5-1.5h18c0.8,0,1.5,0.7,1.5,1.5v25.7
			c0,0.8-0.7,1.5-1.5,1.5H352.9z"/>
		<path d="M370.9,61v25.7h-18V61H370.9 M370.9,58h-18c-1.7,0-3,1.3-3,3v25.7c0,1.7,1.3,3,3,3h18c1.7,0,3-1.3,3-3V61
			C373.9,59.4,372.6,58,370.9,58L370.9,58z"/>
	</g>
</g>
<g>
	<g>
		<path class="st2" d="M188.9,182.9c31.8,4.8,49.4,24.8,47,37c-2,10.3-22.8,17.3-23.9,17.6c-7.8,2.5-14.7,2.7-19.1,2.4"/>
		<g>
			<path class="st2" d="M193.9,239.9c31.8,4.8,49.4,24.8,47,37c-2,10.3-22.8,17.3-23.9,17.6c-8,2.6-16.2,2.4-19.1,2.4
				c-4.5-0.1-8.3-0.5-11-1"/>
		</g>
	</g>
	<path class="st2" d="M271.9,186.9c4.7,33.2,5.4,70-1,109c-0.6,3.7-1.3,7.4-2,11"/>
	<g>
		<path class="st3" d="M311,187.9c1.1-5,1.5-7.7,4.2-9.2c2.9-1.7,7.6-1.8,10.5,0c4,2.5,3.4,8,3.1,10.1c-0.3,2.8-0.1,4.5-0.7,8.8
			c-0.4,3.4-1,8.2-1.6,13.9c0,0-0.6,6.2-1.1,12.5c-1.7,24.4-1.3,60.3-4,60.5c-2.8,0.2-7.9-40.5-10.5-61.3c-0.3-2.4-0.9-7.2-1-13.3
			c-0.1-3.8-0.1-6.6,0-9C310.1,194.7,310.2,191.5,311,187.9z"/>
		<path class="st4" d="M316.9,293.7c-3.3,2.1-4.7,6.5-2,9.2c2.4,2.4,7,2.4,10,0.8c3.6-1.9,5.5-6.3,3-9.2
			C325.5,291.8,320.2,291.7,316.9,293.7z"/>
	</g>
</g>
</svg>
