<?xml version="1.0" encoding="utf-8"?>
<!-- Generator: Adobe Illustrator 22.0.0, SVG Export Plug-In . SVG Version: 6.00 Build 0)  -->
<svg version="1.1" id="Layer_1" xmlns="http://www.w3.org/2000/svg" xmlns:xlink="http://www.w3.org/1999/xlink" x="0px" y="0px"
	 viewBox="0 0 64 64" style="enable-background:new 0 0 64 64;" xml:space="preserve">
<style type="text/css">
	.st0{fill:#FFFFFF;stroke:#000000;stroke-miterlimit:10;}
</style>
<path class="st0" d="M1.6,51.5C-0.2,45.9,6.7,33,17.3,32.9c11-0.1,17.9,13.4,16,19C30.6,60.3,4.4,60.1,1.6,51.5z"/>
<path class="st0" d="M31.1,51.5c-1.8-5.6,5.1-18.5,15.7-18.6c11-0.1,17.9,13.4,16,19C60,60.3,33.8,60.1,31.1,51.5z"/>
<path class="st0" d="M17.8,52c-1.8-6,5.1-19.9,15.7-20c11-0.1,17.9,14.4,16,20.4C46.7,61.5,20.6,61.2,17.8,52z"/>
<ellipse class="st0" cx="17.1" cy="26.4" rx="4" ry="5"/>
<ellipse class="st0" cx="33.7" cy="24.7" rx="4" ry="5"/>
<ellipse class="st0" cx="47" cy="26.4" rx="4" ry="5"/>
</svg>
