<?xml version="1.0" encoding="utf-8"?>
<!-- Generator: Adobe Illustrator 22.0.0, SVG Export Plug-In . SVG Version: 6.00 Build 0)  -->
<svg version="1.1" id="Layer_1" xmlns="http://www.w3.org/2000/svg" xmlns:xlink="http://www.w3.org/1999/xlink" x="0px" y="0px"
	 viewBox="0 0 389.9 407" style="enable-background:new 0 0 389.9 407;" xml:space="preserve">
<g>
	<path d="M203.7,71.6l4.5,39.1l1,9l8.8,2.1c8.7,2.1,17,5.6,24.7,10.3l7.8,4.7l7.1-5.7l30.8-24.5l9.1,9.1l-24.5,30.9l-5.6,7.1
		l4.7,7.7c4.6,7.7,8.1,15.9,10.2,24.7l2.1,8.8l9,1l39.2,4.5v12.8l-39.2,4.5l-9,1l-2.1,8.8c-2.1,8.7-5.5,17-10.2,24.7l-4.7,7.7
		l5.6,7.1l24.5,30.9l-9.1,9.1l-30.8-24.5l-7.1-5.7l-7.8,4.7c-7.7,4.7-16,8.1-24.7,10.3l-8.8,2.1l-1,9l-4.5,39.1h-12.8l-4.5-39.1
		l-1-9l-8.8-2.1c-8.7-2.1-17-5.6-24.7-10.3l-7.8-4.7l-7.1,5.7L106.2,307l-9.1-9.1l24.5-30.9l5.6-7.1l-4.7-7.7
		c-4.6-7.7-8.1-15.9-10.2-24.7l-2.1-8.8l-9-1L62,213.3v-12.8l39.2-4.5l9-1l2.1-8.8c2.1-8.7,5.5-17,10.2-24.7l4.7-7.7l-5.6-7.1
		l-24.5-30.9l9.1-9.1l30.8,24.5l7.1,5.7l7.8-4.7c7.7-4.7,16-8.1,24.7-10.3l8.8-2.1l1-9l4.5-39.1H203.7 M215.3,58.6h-36l-5.8,50.6
		c-10.2,2.5-19.7,6.5-28.4,11.8l-39.9-31.7l-25.5,25.5l31.8,39.9c-5.3,8.7-9.2,18.2-11.7,28.3L49,188.9v36l50.7,5.8
		c2.5,10.1,6.4,19.7,11.7,28.3L79.7,299l25.5,25.5l39.9-31.7c8.7,5.3,18.2,9.3,28.4,11.8l5.8,50.6h36l5.8-50.6
		c10.2-2.5,19.7-6.5,28.4-11.8l39.9,31.7l25.5-25.5l-31.7-40c5.3-8.7,9.2-18.2,11.7-28.3l50.7-5.8v-36l-50.7-5.8
		c-2.5-10.1-6.4-19.7-11.7-28.3l31.7-40l-25.5-25.5L249.5,121c-8.7-5.3-18.2-9.3-28.4-11.8L215.3,58.6L215.3,58.6z"/>
</g>
<g>
	<path d="M197.3,159.5c26.1,0,47.2,21.2,47.2,47.3s-21.2,47.3-47.2,47.3S150,233,150,206.9S171.2,159.5,197.3,159.5 M197.3,146.5
		c-33.3,0-60.2,27-60.2,60.3s27,60.3,60.2,60.3s60.2-27,60.2-60.3S230.5,146.5,197.3,146.5L197.3,146.5z"/>
</g>
</svg>
