<?xml version="1.0" encoding="utf-8"?>
<!-- Generator: Adobe Illustrator 22.0.0, SVG Export Plug-In . SVG Version: 6.00 Build 0)  -->
<svg version="1.1" id="Layer_1" xmlns="http://www.w3.org/2000/svg" xmlns:xlink="http://www.w3.org/1999/xlink" x="0px" y="0px"
	 viewBox="0 0 64 64" style="enable-background:new 0 0 64 64;" xml:space="preserve">
<style type="text/css">
	.st0{fill:#45DF00;}
	.st1{fill:#FFFFFF;}
</style>
<g>
	<circle class="st0" cx="32" cy="32" r="31.5"/>
	<path class="st1" d="M32,1c17.1,0,31,13.9,31,31S49.1,63,32,63S1,49.1,1,32S14.9,1,32,1 M32,0C14.3,0,0,14.3,0,32s14.3,32,32,32
		s32-14.3,32-32S49.7,0,32,0L32,0z"/>
</g>
<g>
	<circle class="st0" cx="32" cy="32" r="31.5"/>
	<path class="st1" d="M32,1c17.1,0,31,13.9,31,31S49.1,63,32,63S1,49.1,1,32S14.9,1,32,1 M32,0C14.3,0,0,14.3,0,32s14.3,32,32,32
		s32-14.3,32-32S49.7,0,32,0L32,0z"/>
</g>
<g>
	<polygon class="st1" points="23.2,16.8 49.6,32 23.2,47.2 	"/>
	<path class="st1" d="M23.7,17.6L48.6,32L23.7,46.4V17.6 M22.7,15.9v32.2L50.6,32L22.7,15.9L22.7,15.9z"/>
</g>
</svg>
