<?xml version="1.0" encoding="utf-8"?>
<!-- Generator: Adobe Illustrator 22.0.0, SVG Export Plug-In . SVG Version: 6.00 Build 0)  -->
<svg version="1.1" id="Layer_1" xmlns="http://www.w3.org/2000/svg" xmlns:xlink="http://www.w3.org/1999/xlink" x="0px" y="0px"
	 viewBox="0 0 351.1 448" style="enable-background:new 0 0 351.1 448;" xml:space="preserve">
<style type="text/css">
	.st0{fill:#F3821F;stroke:#000000;stroke-miterlimit:10;}
</style>
<g>
	<ellipse transform="matrix(0.9909 -0.1343 0.1343 0.9909 -50.2495 15.7414)" class="st0" cx="91.5" cy="380.2" rx="34" ry="43"/>
	<path class="st0" d="M73.2,305C45,314.3,45,315.9,40.4,315.5c-11.5-1.1-23.6-12.5-25.7-25.8c-2.5-15.6,9.7-27.3,14.8-32.3
		c4.5-4.4,11.5-7.8,25.3-14.5c16.7-8.1,25-12.2,34.3-14.7c15.5-4.3,26.5-7.3,38.1-2.1c12.8,5.7,18.3,17.7,20.1,21.5
		c1.3,2.9,12.2,27.6-2.2,43.7c-6.3,7.1-17.2,12.1-26.8,10.7c-5.1-0.8-5.9-2.8-12.6-3.3c-1.9-0.2-6.5-0.4-18.8,2.6
		C79.9,302.8,74.7,304.5,73.2,305z"/>
	<path class="st0" d="M127.7,178.5c-8.4,2.2-10.1,13.9-10.1,14.5c-0.3,2-1.3,9.7,3.9,13.6c3.6,2.8,8.3,1.9,9.3,1.8
		c0.9-0.2,4.6-0.9,7.5-4c5-5.3,3.4-12.9,2.9-15.5c-0.6-3-1.2-6.2-4.2-8.5C133.1,177.2,128.1,178.4,127.7,178.5z"/>
	<path class="st0" d="M100.5,215.5c6.4-4.1,3-16.3,2.7-17.5c-0.7-2.6-1.5-5.4-3.9-6.5c-3.4-1.6-8.4,1-10.5,4.5
		c-1.4,2.3-1.1,5.3-0.5,11.2c0.4,4.3,0.7,6.4,2.1,7.8C92.8,217.3,97.5,217.4,100.5,215.5z"/>
	<path class="st0" d="M74.7,219c2.9-5.9-0.7-15.5-6.2-16.3c-2.9-0.4-6,1.7-7.5,4c-2.6,4.1-0.5,8.9,0.5,11c1,2.1,2.6,5.8,5.9,6.3
		C70.5,224.5,73.5,221.5,74.7,219z"/>
	<path class="st0" d="M51,230.3c1.2-3.6,0.3-9.4-4.6-11.5c-4.7-2-9.8,0.8-11.5,4.6c-1.7,3.8,0.5,7.6,1.2,8.9
		c0.8,1.4,2.1,3.7,4.6,4.4c3.1,0.8,5.9-1.2,6.8-1.9C48.3,234.3,50.2,232.8,51,230.3z"/>
	<path class="st0" d="M13,240.5c-3.3,2.4-2.4,8.1-0.5,11.2c0.5,0.8,2.1,3.4,4.5,3.4c2.4,0,3.9-2.6,4.6-3.6c0.4-0.6,1.5-2.5,1.3-5.2
		c-0.1-1-0.3-4-2.8-5.7C18,239.1,15,239.1,13,240.5z"/>
</g>
<g>
	<ellipse transform="matrix(0.9828 -0.1848 0.1848 0.9828 -31.4881 55.7403)" class="st0" cx="283.2" cy="196.7" rx="34" ry="43"/>
	<path class="st0" d="M276.8,119.6c29.7-0.1,30.3,1.5,34.5-0.4c10.6-4.7,18.4-19.3,16.3-32.6c-2.6-15.6-17.8-22.9-24.2-26
		c-5.7-2.7-13.4-3.8-28.6-5.8c-18.4-2.5-27.5-3.7-37.2-3.2c-16.1,0.8-27.4,1.4-36.8,10c-10.4,9.4-11.8,22.6-12.3,26.7
		c-0.3,3.2-2.9,30,15.8,40.8c8.2,4.7,20.1,6.1,28.8,1.7c4.6-2.3,4.7-4.5,10.9-7.1c1.7-0.7,6.1-2.5,18.7-3.5
		C269.8,119.6,275.3,119.6,276.8,119.6z"/>
	<path class="st0" d="M185.2,16.8c8.7-0.6,14,10.1,14.2,10.6c0.9,1.8,4.3,8.9,0.6,14.1c-2.6,3.8-7.3,4.5-8.3,4.6
		c-0.9,0.1-4.7,0.6-8.4-1.5c-6.4-3.5-7.4-11.2-7.7-13.8c-0.4-3-0.8-6.3,1.3-9.4C179.8,17.2,184.8,16.8,185.2,16.8z"/>
	<path class="st0" d="M222.8,43.3c-7.4-1.8-8-14.6-8.1-15.8c-0.1-2.7-0.3-5.6,1.7-7.4c2.7-2.6,8.3-1.7,11.4,0.9
		c2.1,1.8,2.7,4.6,4,10.4c0.9,4.2,1.4,6.3,0.5,8C230.7,42.5,226.2,44.1,222.8,43.3z"/>
	<path class="st0" d="M248.3,38.5c-4.7-4.7-4.2-14.9,0.8-17.4c2.6-1.3,6.2-0.3,8.4,1.5c3.8,3.1,3.3,8.3,3,10.6
		c-0.2,2.3-0.7,6.4-3.6,7.8C254.1,42.3,250.3,40.4,248.3,38.5z"/>
	<path class="st0" d="M274.4,41.7c-2.3-3-3.2-8.8,0.7-12.3c3.8-3.4,9.6-2.3,12.3,0.7c2.8,3,1.9,7.4,1.7,8.8c-0.3,1.6-0.8,4.2-3,5.7
		c-2.7,1.8-6,0.7-7.1,0.3C278.2,44.6,276,43.8,274.4,41.7z"/>
	<path class="st0" d="M313.6,39.4c3.9,1.2,4.8,6.9,4,10.4c-0.2,0.9-0.9,3.9-3.2,4.7c-2.2,0.7-4.5-1.2-5.5-2
		c-0.5-0.5-2.2-1.9-2.9-4.5c-0.2-1-1-3.9,0.9-6.3C308.5,39.6,311.4,38.7,313.6,39.4z"/>
</g>
</svg>
