<?xml version="1.0" encoding="utf-8"?>
<!-- Generator: Adobe Illustrator 22.0.0, SVG Export Plug-In . SVG Version: 6.00 Build 0)  -->
<svg version="1.1" id="Layer_1" xmlns="http://www.w3.org/2000/svg" xmlns:xlink="http://www.w3.org/1999/xlink" x="0px" y="0px"
	 viewBox="0 0 64 64" style="enable-background:new 0 0 64 64;" xml:space="preserve">
<style type="text/css">
	.st0{fill:#D4002F;}
	.st1{fill:#FFFFFF;}
	.st2{fill:#FFFFFF;stroke:#FFFFFF;stroke-miterlimit:10;}
</style>
<g>
	<circle class="st0" cx="32" cy="32" r="31.5"/>
	<path class="st1" d="M32,1c17.1,0,31,13.9,31,31S49.1,63,32,63S1,49.1,1,32S14.9,1,32,1 M32,0C14.3,0,0,14.3,0,32s14.3,32,32,32
		s32-14.3,32-32S49.7,0,32,0L32,0z"/>
</g>
<path class="st2" d="M35.7,47.7h-7.5c-6.6,0-12-5.4-12-12v-7.5c0-6.6,5.4-12,12-12h7.5c6.6,0,12,5.4,12,12v7.5
	C47.7,42.3,42.3,47.7,35.7,47.7z"/>
</svg>
